<?xml version="1.0" encoding="UTF-8"?>
<svg id="Camada_2" data-name="Camada 2" xmlns="http://www.w3.org/2000/svg" viewBox="0 0 391.61 374.23">
  <defs>
    <style>
      .cls-1 {
        fill: #c02c63;
      }

      .cls-1, .cls-2, .cls-3, .cls-4, .cls-5, .cls-6, .cls-7, .cls-8, .cls-9, .cls-10, .cls-11, .cls-12, .cls-13, .cls-14, .cls-15 {
        stroke-width: 0px;
      }

      .cls-2 {
        fill: #162a50;
      }

      .cls-3 {
        fill: #e5e2e4;
      }

      .cls-4 {
        fill: #541f20;
      }

      .cls-5 {
        fill: #359fa7;
      }

      .cls-6 {
        fill: #fefeff;
      }

      .cls-7 {
        fill: #2d9ccb;
      }

      .cls-8 {
        fill: #d27b2f;
      }

      .cls-9 {
        fill: #5479b3;
      }

      .cls-10 {
        fill: #f1dc34;
      }

      .cls-11 {
        fill: #93181d;
      }

      .cls-12 {
        fill: #c02269;
      }

      .cls-13 {
        fill: #731f22;
      }

      .cls-14 {
        fill: #fefefe;
      }

      .cls-15 {
        fill: #fdfaf8;
      }
    </style>
  </defs>
  <g id="Camada_1-2" data-name="Camada 1">
    <path class="cls-5" d="M104.85,86.39c.54-.58,1.07-1.18,1.64-1.75,24.87-24.87,49.75-49.73,74.61-74.61C187.89,3.24,196.1-.14,205.68,0c7.87.12,14.84,2.83,20.86,7.91.85.72,1.66,1.51,2.45,2.3,16.79,16.78,33.58,33.57,50.37,50.36.5.5.95,1.07,1.42,1.61-2.6.74-5.28,1.17-7.87,2.01-13.7,4.43-22.79,13.33-26.59,27.35-.64,2.38-1.04,4.82-1.54,7.24-6.12.36-11.49,2.66-16.39,6.23,0-1.52-.11-3.05.02-4.55.14-1.67-.54-2.66-1.94-3.48-3.72-2.18-7.74-3.05-11.95-2.42-4.06.6-7.43,2.61-7.72,9.07-.02.35.18.82-.51,1.01-1.41-2.71-4.16-3.91-6.69-5.07-7.45-3.43-15.27-3.86-23.08-1.45-9.68,2.99-16.75,9.29-21.61,18.12-.98,1.78-1.82,3.64-2.61,5.55-.18-.83-.19-1.61-.18-2.39.07-7.02-.02-14.04-.47-21.05-.05-.73-.32-1.4-.4-2.1-.12-.99-.61-1.27-1.56-1.36-2.05-.19-4.08-.65-6.13-.8-3.02-.22-6.08-.51-9.03.41-2.55.8-4.52,2.34-5.31,5.04-.74,2.53-.9,5.15-1.07,7.77-.05.7.19,1.46-.47,2.02-3.82-3.55-7.45-7.29-11.08-11.03,1.22-1.58,3.17-2.04,4.75-3.07,5.25-3.43,10.64-6.65,15.77-10.26,1.12-.79,1-1.39.45-2.33-1.76-3.02-3.5-6.06-5.25-9.09-.76-1.32-1.03-1.41-2.49-.81-.44.18-.87.4-1.29.62-6.29,3.27-12.19,7.18-18.06,11.13-1.51,1.01-3.15,1.85-4.38,3.25-.56-.31-.92-.8-1.24-1.33Z"/>
    <path class="cls-8" d="M305.17,286.75c-.36.74-1.03,1.21-1.59,1.77-25.31,25.32-50.65,50.6-75.93,75.95-7.44,7.45-16.31,10.73-26.74,9.51-6.97-.82-12.95-3.86-17.92-8.83-14.07-14.06-28.14-28.14-42.21-42.2-8.2-8.19-16.4-16.37-24.61-24.54-.96-.96-1.97-1.87-2.95-2.81.14-.93.88-1.49,1.37-2.2,2.88-4.11,3.99-8.8,4.57-13.68q1.73,1.04,2.98-.15c.63-.61,1.23-1.24,1.85-1.86,5.08-5.02,9.83-10.36,14.75-15.53.62.6,1.33,1.14,1.85,1.82,1.34,1.78,3.02,3.18,4.8,4.48.31,1.33.44,2.67.52,4.03.14,2.23.34,4.46.56,6.68.16,1.62.37,1.76,1.95,1.57,1.98-.24,3.96-.5,5.94-.72,7.22-.78,14.39-1.92,21.54-3.16,2.7-.47,5.36-1.25,8.24-1.47.23,3.59.18,7.03.49,10.45.13,1.44.67,1.94,1.94,2.15,4.02.66,8.05,1.28,12.11,1.48,13.66.7,27.12-.49,40.21-4.69,10.65-3.42,20.22-8.68,28.28-16.54,3.34-3.25,6-7.04,8.64-10.84.19.14.38.29.57.43-.3,2.7-1.18,5.27-1.72,7.91-.5,2.47-.61,2.15,1.71,2.96,5.19,1.8,10.51,3.18,15.79,4.65.7.76,1.38,1.54,2.1,2.28,3.63,3.7,7.27,7.38,10.91,11.07ZM235.89,311.78c.19-.96.77-1.44,1.17-2.03,2.54-3.69,4.15-7.72,4.46-12.23.13-1.89.03-2.03-1.91-2.1-3.76-.14-7.5.1-11.22.73-9.56,1.63-18.16,5.42-25.82,11.35-.93.72-1.89,1.08-3.06,1.14-2.95.17-5.9.36-8.84.67-6.28.67-12.48,1.79-18.47,3.86-2.8.97-5.51,2.15-7.84,4.04-3.5,2.84-3.51,6.16-.01,9.02,2,1.64,4.33,2.71,6.72,3.62,3.59,1.37,7.3,2.32,11.07,3.01,1.92.35,1.97.43,1.45,2.35-.85,3.18-1.29,6.42-1.57,9.68-.2,2.34-.18,4.68-.02,7.2.97-.63,1.22-1.42,1.69-2.04.82-1.09,1.6-2.26,2.82-2.89.93-.48,1.13-1.11,1.21-2.07.27-3.18.57-6.36,1.19-9.5.25-1.26.77-1.63,1.93-1.41.31.06.64.03.96.07,7.97.87,15.95.95,23.94.42,7.67-.51,15.25-1.55,22.61-3.85,3.52-1.1,6.96-2.41,9.8-4.86,3.07-2.65,3.08-5.68.08-8.38-1.68-1.52-3.65-2.59-5.74-3.42-2.13-.85-4.32-1.57-6.62-2.39Z"/>
    <path class="cls-9" d="M275.8,257.45c-2.64,3.8-5.3,7.58-8.64,10.84-8.06,7.85-17.63,13.12-28.28,16.54-13.1,4.2-26.55,5.39-40.21,4.69-4.06-.21-8.09-.83-12.11-1.48-1.27-.21-1.81-.71-1.94-2.15-.31-3.42-.26-6.85-.49-10.45-2.87.21-5.53.99-8.24,1.47-7.15,1.25-14.32,2.38-21.54,3.16-1.98.21-3.96.48-5.94.72-1.57.19-1.78.05-1.95-1.57-.22-2.22-.43-4.45-.56-6.68-.08-1.36-.21-2.71-.52-4.03-.05-4.22-.46-8.41-1.06-13.11-2.1,2.56-3.85,4.68-5.59,6.8-4.92,5.17-9.67,10.51-14.75,15.53-.62.61-1.22,1.25-1.85,1.86q-1.25,1.2-2.98.15c-.09-.91-.42-1.86.37-2.65,1.53,1.09,1.55,1.08,2.44-.82.57-.43,1.2-.79,1.7-1.29,7.68-7.81,15.19-15.77,21.83-24.5,1.63-2.14,1.33-1.83-.12-3.58-8.74-10.5-17.53-20.96-26.58-31.2-1.46-1.65-1.48-1.66-.14-3.3,3.18-3.9,6.39-7.78,9.57-11.68,5.95-7.31,11.93-14.6,17.65-22.1,1.25-1.63,1.25-1.69-.06-2.92-7.75-7.29-15.77-14.25-24.83-19.9-3.57-2.23-2.75-2.22-5.25.81-11.17,13.57-22.29,27.18-33.44,40.77-.43.52-.79,1.14-1.42,1.44-.47-.53-.31-1.03-.31-1.48-.06-7.27-.1-14.54-.16-21.81-.04-5.35-.08-10.7-.15-16.06-.03-2.12-.05-2.1-2.09-2.16-3.68-.1-7.34.26-11.01.42-7.27.33-14.47,1.25-21.64,2.47-1.76.3-1.78.36-1.83,2.15-.13,4.87-.31,9.74-.36,14.61-.14,14.38-.29,28.76-.33,43.14-.03,11.5.1,23.01.15,34.51-.86-.03-1.63-.3-2.27-.89,0-9.82-.02-19.65-.03-29.47,0-.57-.03-1.12-.36-1.61.5-.63.35-1.37.35-2.07.11-13.16-.11-26.31.41-39.47.18-4.46.11-8.93.12-13.4,0-1.73-.03-1.73-1.69-1.85-.72-.05-1.44-.03-2.15-.14-2.2-.34-2.3-.51-2.4-2.75-.1-2.22.16-4.46-.29-6.67-.3-6.14-.62-12.28-.89-18.43-.43-9.89-1.26-19.78-.32-29.69.09-.95.28-1.89.4-2.84.45-3.74,2.65-6.01,6.05-7.33,4.51-1.76,9.21-1.78,13.94-1.64,1.18.04,1.6.93,2.16,1.67,4.71,6.26,9.14,12.71,13.48,19.23.5.75.8,1.72,1.79,2.14.77-.71.46-1.54.44-2.3-.17-5.83-.13-11.66.02-17.49.03-1.28.39-1.75,1.72-1.91,3.33-.39,6.64-.98,9.95-1.54,1.51-.25,3.02-.31,4.54-.35,1.98-.06,3.8.41,5.39,1.63.88,1.11,1.41,2.39,1.69,4.01,1.46-1.96,2.85-3.62,5.12-4.07,2.27-.45,4.55-.74,6.87-.28,1.3.26,2.63.34,4.39.03-2.23-3.12-3.23-6.6-5.5-9.4,1.23-1.4,2.87-2.24,4.38-3.25,5.87-3.95,11.77-7.86,18.06-11.13.42-.22.85-.44,1.29-.62,1.46-.6,1.72-.52,2.49.81,1.75,3.03,3.48,6.07,5.25,9.09.55.94.67,1.54-.45,2.33-5.14,3.61-10.52,6.84-15.77,10.26-1.58,1.03-3.53,1.5-4.75,3.07-.75.62-.44,1.48-.44,2.23.03,8.04-.27,16.09.4,24.12.24,2.94.56,5.85,1.05,8.75.12.7.23,1.43.93,1.85-.18,1.78.78,3,2,4.11,1.03.94,2.09,1.2,3.47.68,2.63-.99,4.98-3.8,5.07-6.65.1-3.42.01-6.84.02-10.26,0-.7-.13-1.27-.94-1.4.28-.48.57-.95.53-1.55-.15-2.39.08-4.79-.34-7.16-.22-1.24.17-2.58-.66-3.71.66-.56.42-1.32.46-2.02.17-2.61.33-5.23,1.07-7.77.79-2.7,2.75-4.24,5.31-5.04,2.95-.92,6.01-.63,9.03-.41,2.05.15,4.08.61,6.13.8.96.09,1.45.37,1.56,1.36.08.7.35,1.37.4,2.1.46,7.01.54,14.02.47,21.05,0,.78,0,1.55.18,2.39.78-1.91,1.62-3.77,2.61-5.55,4.87-8.83,11.93-15.13,21.61-18.12,7.81-2.41,15.63-1.97,23.08,1.45,2.53,1.16,5.28,2.36,6.69,5.07.68-.19.49-.66.51-1.01.29-6.46,3.66-8.46,7.72-9.07,4.21-.62,8.23.24,11.95,2.42,1.4.82,2.09,1.81,1.94,3.48-.13,1.51-.02,3.03-.02,4.55-.03.4-.08.79-.08,1.19,0,11.96.02,23.93.03,35.89,0,.47-.07.96.34,1.53.93-.16,1.94-.3,2.94-.53,4.28-.95,8.54-1.95,12.82-2.89,2.11-.46,2.13-.42,2.14-2.48.02-6.46-.02-12.92.05-19.38.04-4.22-.12-8.45.29-12.66l.02.03c-.23-.89-.17-1.79-.07-2.7.34-1.42,1.5-.83,2.36-.96-.08.55-.21,1.1-.22,1.65-.14,5.51-.29,11.02-.37,16.53-.19,13.58.08,27.16.39,40.74.06,2.66-.26,2.57,2.66,2.47.24,0,.48-.01.72-.03,10.2-.66,20.4-1.33,30.58-2.34,2.85-.28,5.5-.75,7.35-3.22.23-.31.57-.57.89-.8.79-.55.98-1.3,1.08-2.25.32-3.06-.54-5.81-1.72-8.56-.45-1.05-.88-1.43-2.1-1.29-6.5.77-13.01,1.43-19.52,2.12-2.64.28-2.65.27-2.82-2.47-.06-.88-.07-1.76-.07-2.63q0-2.63,2.54-2.85c.4-.03.8-.04,1.2-.08,5.81-.5,11.62-1.03,17.43-1.48,1.24-.1,1.66-.58,1.58-1.79-.24-3.54.47-7,1.12-10.45.17-.92.58-1.8.41-2.66-.38-.35-.7-.28-1.02-.25-7.32.63-14.64,1.22-21.96,1.91-1.19.11-1.59-.18-1.55-1.36.05-1.68-.04-3.35-.04-5.03,0-1.76.02-1.76,1.88-1.93,7.16-.66,14.32-1.32,21.47-1.99,2.8-.26,2.89-.33,2.98-3.14.1-2.95.12-5.91.17-8.86.66.07,1.32.15,1.98.22v10.48c2.19-3.32,4.66-6.21,7.46-8.84.88.13,1.78.16,2.58.62-1.64,1.39-3.31,2.77-4.62,4.5-7.15,9.43-9.8,20.07-8.3,31.74.51,4,2.02,7.68,4.17,11.12.67,1.07,1.21,1.16,2.28.54,8.79-5.12,18.41-6.95,28.46-7.07,5.76-.07,11.48.53,17.14,1.51,1.79.31,1.9.45,2.99-1.39,3.49-5.86,5.46-12.2,5.93-19,.75.51,1.51,1.03,2.26,1.54-.7.44-.39,1.18-.53,1.79-.85,6.31-3.11,12.13-6.41,17.69.95.28,1.62.54,2.31.68,5.86,1.22,11.57,2.95,17.24,4.83,1.92.63,1.94.75,1.48,2.78-.54,2.4-1.07,4.81-1.61,7.21-1.68,7.23-3.35,14.46-5.03,21.69-.52,2.22-.54,2.2-2.64,1.8-4.62-.89-9.23-1.87-13.88-2.6-6.55-1.03-13.14-1.87-19.8-1.61-3.04.12-6.06.45-8.84,1.84-2.04,1.02-3.26,2.65-3.03,4.98.23,2.35,1.54,3.95,3.84,4.71,1.72.57,3.48.48,5.23.33,5.57-.5,11.14-.68,16.74-.54,9.15.23,16.92,3.47,23.63,9.62,4.31,3.95,7.41,8.55,8.57,14.35.14.7.39,1.38.59,2.07,1.41,7.04,1.77,14.09.04,21.13-3.92,15.93-13.67,26.75-28.89,32.65-7.78,3.01-15.93,3.88-24.22,3.78-1.51-.02-3.03-.01-4.55-.02-1.66-.7-3.44-.43-5.16-.62-5.92-.68-11.73-1.89-17.55-3.09-5.29-1.47-10.6-2.85-15.79-4.65-2.32-.8-2.21-.49-1.71-2.96.54-2.65,1.42-5.22,1.72-7.91.56-.67.41-1.47.47-2.25-.49.55-.92,1.09-1.04,1.81ZM293.19,225.36c-.09-.21-.18-.41-.44-.42-2.17-1.56-4.34-3.12-6.67-4.8-.49,4.86-.92,9.39-1.92,13.84-.26,1.16.22,1.65,1.26,1.81,2.12.32,4.25.63,6.38.95,6.19,1.21,12.45,1.92,18.72,2.43,4.68.38,9.39.66,14.09.13,2.47-.28,4.89-.66,7.16-1.75,1.78-.86,3.02-2.13,3.01-4.21,0-1.96-1.6-3.85-3.71-4.53-1.7-.55-3.45-.56-5.21-.41-6.44.55-12.89.8-19.35.38-3.85-.25-7.55-1.16-11.1-2.68-.73-.31-1.4-.78-2.24-.76l.03.03ZM186.15,167.83c5.55-1.96,11.12-3.83,16.92-4.98,1.12-.22,2.54.18,3.38-.85.96-1.17-.14-2.44-.11-3.68.13-5.02-.33-10.03-.44-15.04-.17-8.3-.07-16.61-.04-24.92,0-2.38-.25-4.78.4-7.14.16-.6.18-1.32-.11-2.01-.21.14-.29.17-.32.22-.38.7-.72,1.43-1.13,2.11-2.67,4.43-5.86,8.34-10.67,10.64-.94.45-1.75.57-2.7.02-1.89-1.08-3.98-1.58-6.07-2.11-1.52-.38-2.97-.32-4.46.17-2.67.88-4.75,2.42-6.36,4.77-3.33,4.87-3.52,8.98-.7,13.58,2.14,3.49,8.26,4.58,11.47,2.09,2.36-1.84,5-2.97,7.89-3.8,3.34-.96,8.01.94,10.03,4.35,1.82,3.06,2.23,6.42,2.68,9.8.14,1.07-.09,2.12-.84,2.9-1.43,1.49-2.78,3.08-4.49,4.29-4.49,3.18-9.43,5.29-14.86,6.2-.72.12-1.39.34-1.88.93-.44-.18-.84-.41-1.34-.44-2.34-.13-2.56.16-2.29,2.55.31,2.69.55,5.38.74,8.08.39,5.72.64,11.45,1.13,17.16.22,2.62.37,5.24.46,7.87.04,1.02.23,1.99.8,3.24-.25-10.39.44-20.42.57-30.46.03-2.18.23-4.25,2.33-5.54ZM206.27,287.67c4.28-.18,8.83-.34,13.36-.9,10.13-1.25,19.94-3.68,29.14-8.2,13.66-6.71,23.8-16.76,29.38-31.11,3.48-8.94,5.04-18.28,5.83-27.79.1-1.15-.31-1.95-1.07-2.76-2.09-2.23-3.86-4.71-4.85-7.63-2.8-8.3-4-16.76-2.27-25.46.29-1.48-.05-2.57-1.07-3.68-5.04-5.45-10.78-9.94-17.47-13.24-2.29-1.13-4.57-1.82-7.13-1.28-.62.13-1.27.08-1.91.12-.63.03-1.23-.12-1.13-.86.23-1.76-1.01-1.89-2.19-2.14-4.95-1.04-9.96-1.44-15.01-1.2-9.75.47-19.37,2.02-28.9,4.04-4.53.96-8.98,2.25-13.22,4.17-1.15.52-1.76,1.16-1.73,2.51.03,1.67-.21,3.35-.26,5.02-.31,11.66-.68,23.31-.73,34.98-.12,23.89.25,47.77,1.59,71.62.11,2.02.1,2.02,2.18,2.35,5.69.9,11.43,1.26,17.45,1.43ZM318.04,226.81c3.15-.19,6.1-.39,9.05-.53,1.76-.08,3.52-.01,5.18.7,2.74,1.17,4.36,3.18,4.56,6.19.21,3.15-1.57,5.07-4.22,6.33-1.96.93-4.07,1.4-6.22,1.68-8.08,1.06-16.11.21-24.13-.72-5.63-.66-11.23-1.52-16.81-2.56-1.91-.36-1.98-.27-2.42,1.59-1.99,8.47-3.98,16.94-5.96,25.41-.39,1.66-.38,1.71,1.2,2.22,12.8,4.17,25.81,7.32,39.35,7.77,7.55.25,15.01-.3,22.28-2.54,10.97-3.39,19.74-9.72,25.59-19.69,6.55-11.15,7.47-23.04,4.15-35.4-.82-3.04-1.89-5.96-3.93-8.39-5.27-6.28-11.56-10.99-19.85-12.51-2.44-.45-4.89-.71-7.38-.76-5.52-.12-11.02.13-16.52.65-2.02.19-4.01,0-5.87-.83-2.54-1.14-3.96-3.15-4.26-5.92-.3-2.87.67-5.18,3.15-6.77,1.64-1.05,3.45-1.63,5.36-1.98,5.4-.99,10.83-.69,16.24-.19,7.25.67,14.4,1.97,21.52,3.41,1.77.36,1.8.34,2.23-1.48,1.12-4.74,2.21-9.48,3.32-14.22.9-3.89,1.76-7.78,2.73-11.65.3-1.19.05-1.83-1.16-2.08-.31-.06-.61-.17-.92-.27-9.45-3.05-19.04-5.41-28.95-6.34-7.92-.74-15.81-.68-23.58,1.23-13,3.19-23.03,10.39-29.47,22.27-4.91,9.06-6.16,18.74-4.39,28.81.73,4.16,1.46,8.43,4.01,11.94,5.51,7.6,12.69,12.71,22.17,14.21,4.7.75,9.41.37,13.92.43ZM183.48,260.31c-.3-5.58-.25-10.45-.49-15.32-.69-14.13-1.47-28.24-2.45-42.35-.86-12.43-1.7-24.87-2.58-37.3-.25-3.51-.64-7-.86-10.51-.07-1.19-.54-1.55-1.63-1.43-.55.06-1.12.03-1.68.08-5.41.49-10.82,1.03-16.18,1.94-5.2.88-10.36,1.91-15.49,3.14-1.22.29-1.55.82-1.45,1.98.18,2.07.34,4.15.35,6.22,0,1.24.48,2.08,1.38,2.87,2.1,1.85,4.14,3.77,6.16,5.7,1.3,1.24,1.33,1.32.29,2.73-1.89,2.58-3.84,5.11-5.81,7.63-.62.79-1,1.56-.94,2.61.36,5.66.63,11.33,1,16.99.72,11.16,1.57,22.31,2.18,33.48.18,3.22.51,6.19,3.14,8.4,1.11.93.95,1.89.04,2.87-.27.29-.44.67-.72.95-1.24,1.24-1.46,2.68-1.23,4.39.38,2.93.53,5.89.78,8.83.35,4.14.69,8.28,1.07,12.41.18,1.95.25,1.97,2.21,1.73,3.33-.4,6.67-.75,9.99-1.21,7.12-.97,14.22-2.12,21.25-3.63,2.07-.45,2.08-.48,2.01-2.67-.11-3.75-.26-7.51-.36-10.55ZM74.22,128.18c-1.93-2.95-3.7-5.66-5.47-8.37-4.38-6.68-8.88-13.29-13.67-19.68-.62-.82-1.15-1.73-2.4-1.74-4.17-.02-8.31.16-12.24,1.78-2.59,1.07-4.05,2.99-4.4,5.79-.26,2.06-.52,4.12-.55,6.2-.11,7.67,0,15.34.46,23,.54,8.93.97,17.87,1.38,26.8.06,1.28.57,1.6,1.72,1.66,2.33.12,2.37.12,2.5-2.25,0-.16,0-.32.01-.48.14-2.17.14-2.2,2.29-2.56,3.78-.63,7.56-1.28,11.37-1.7,1.83-.2,1.92-.34,1.81-2.08-.39-5.9-.8-11.79-1.62-17.65-.25-1.79-.78-3.61-.61-5.92.96,1.22,1.61,2.02,2.24,2.84,5.07,6.59,10.08,13.22,14.87,20.01.78,1.11,1.58,1.63,2.95,1.5,1.51-.15,3.04-.21,4.55-.12,2.93.17,3.01-.61,3.06,2.99.02,1.57-.23,3.17.24,4.8,2.71-.3,5.14-1.36,7.66-2.07,1.48-.42,1.92-1.25,1.99-2.75.7-15.8,1.53-31.6,1.33-47.43-.03-2.79-.03-5.59-.48-8.37-.53-3.28-1.72-4.43-5.03-4.53-.71-.02-1.44.06-2.14.17-3.47.53-6.93,1.18-10.41,1.6-1.39.17-1.68.75-1.67,1.99.05,6.79-.18,13.58.25,20.37.12,1.95.02,3.91.02,6.21ZM150.17,114.91c-.43-5.47-.23-10.91-.78-16.33-.12-1.17-.45-1.74-1.7-1.76-1.03-.02-2.05-.29-3.09-.37-2.78-.23-5.53-.81-8.34-.16-3.27.75-4.76,2.06-5.32,5.32-.93,5.4-.48,10.83-.21,16.26.23,4.71.79,9.4.69,14.12-.07,3.64-1.5,6.72-4.4,8.93-3.61,2.76-7.48,1.87-9.71-2.06-1.25-2.2-1.78-4.61-2.12-7.07-1.27-9.05-1.24-18.16-1.24-27.27,0-1.2.01-2.4.03-3.6,0-.75-.27-1.2-1.09-1.24-3.51-.19-6.99-.81-10.52-.51-3.06.26-4.66,1.57-5.42,4.52-.68,2.64-.9,5.35-.98,8.07-.25,8.08.24,16.14,1.11,24.17.63,5.83,2.27,11.43,5.12,16.61,1.52,2.77,3.48,5.16,5.98,7.11,1.33,1.04,1.41,1.02,2.49-.27,1.64-1.96,3.22-3.98,4.88-5.92,2.06-2.39,1.41-2.55,4.37-.84,2.7,1.56,5.29,3.29,7.84,5.09q4.35,3.07,8.71-.24c6.49-4.94,9.97-11.71,11.79-19.47,1.78-7.61,1.51-15.4,1.92-23.08ZM152.12,135.87c-.08,1.28.27,3.18.52,5.07.51,3.83,1.63,7.47,3.6,10.84.64,1.1,1.29,1.51,2.67,1.29,5.99-.98,12.04-1.56,18.11-1.91,1.84-.11,1.85-.07,2.01,1.72.26,2.86.58,5.72.75,8.59.08,1.34.74,1.61,1.85,1.46,1.03-.13,2.07-.23,3.09-.4,6.78-1.17,12.83-3.81,17.69-8.84.49-.51,1.08-.94,1.11-1.77.16-3.95-.57-7.64-3.19-10.76-1.5-1.79-3.42-2.56-5.76-2.24-2.74.37-5.22,1.32-7.43,3.06-5.5,4.33-13.42,2.29-16.23-4.15-3.68-8.43,2.05-16.4,7.62-18.94,1.62-.74,3.32-1.09,5.12-1.02,2.68.11,5.22.76,7.61,1.94,1.12.55,2.08.63,3.12-.09,4.11-2.83,7.35-6.41,9.33-11,1.26-2.9.81-3.87-1.94-5.41-.35-.2-.7-.39-1.04-.6-6.57-3.9-13.64-4.82-21.02-3.25-14.14,3-27.08,16.44-27.58,36.4ZM208,134.33c0,1.28-.03,2.55,0,3.83.21,7.19.09,14.38.65,21.56.16,2.09.13,2.1,2.26,1.83.4-.05.79-.15,1.18-.2,4.44-.56,8.87-1.19,13.31-1.67,6.56-.71,13.08-.37,19.55.9,1.76.34,1.86.2,1.84-1.67-.05-4.39-.14-8.79-.18-13.18-.03-3.89-.02-3.9-3.79-3.04-1.4.32-2.79.68-4.19,1-3.5.81-6.96,1.79-10.55,2.16-1.87.19-1.9.2-1.92-1.64-.04-4.39-.06-8.79-.07-13.18-.02-9.91-.07-19.82,0-29.73.01-1.61-.5-2.5-1.94-3.13-3.16-1.4-6.43-1.89-9.83-1.31-2.9.49-4.61,2.25-5.21,5.19-.14.7-.3,1.41-.36,2.12-.85,10.04-.82,20.11-.76,30.17ZM140.11,190.16c-.9.09-1.15.66-1.48,1.06-4.14,5.07-8.27,10.15-12.4,15.23-1.71,2.11-3.37,4.25-5.13,6.32-.71.84-.74,1.51-.01,2.29.27.29.53.6.79.9,5.65,6.4,11.17,12.92,16.68,19.44,1.46,1.73,2.68,3.72,4.7,5.16-1.06-16.9-2.1-33.58-3.15-50.4ZM82.55,193.06c1.09-.47,1.44-1.11,1.88-1.66,2.53-3.09,5.04-6.19,7.57-9.27,5.11-6.23,10.21-12.47,15.35-18.68.68-.82.63-1.34-.22-1.93-2.33-1.62-4.14-3.72-5.66-6.11-2.65-4.16-4.35-8.69-5.46-13.46-.13-.56-.15-1.17-.96-1.56.21,6.51-.6,12.79-.58,19.1,0,2.1-.05,2.1-1.84,2.79-2.75,1.07-5.54,2.08-8.44,2.61-1.3.24-1.72.81-1.7,2.07.06,3.99.04,7.99.05,11.98,0,4.62,0,9.24,0,14.12ZM135.29,83.23c-.15-.29-.31-.65-.5-.99-1.19-2.08-2.45-4.11-3.54-6.24-.62-1.2-1.25-1.09-2.24-.55-6.52,3.56-12.65,7.74-18.83,11.83-.84.56-.95,1.16-.5,2.01.83,1.54,1.57,3.14,2.44,4.66,1.81,3.14,1.83,3.12,5.04,1.26.14-.08.27-.17.41-.25,5.57-3.28,11-6.77,16.36-10.38.5-.34,1.19-.53,1.37-1.36ZM259.45,165.32c6.53,3.59,12.1,8.26,17.38,13.82,1.89-6.04,4.6-11.18,8.48-16.26-9,1.01-17.39,1.65-25.86,2.44ZM292.78,115.77c-3.04.26-5.96.5-8.87.77-4.91.46-9.82.96-14.73,1.39-1.01.09-1.45.46-1.36,1.47.04.4.03.8.06,1.19.11,1.59.14,1.6,1.69,1.47,3.33-.29,6.66-.58,9.98-.87,3.49-.31,6.97-.62,10.46-.92.65-.06,1.34-.07,1.57-.81.37-1.19,1.1-2.27,1.2-3.69ZM57.89,138.97c.25,2.85.45,5.7.75,8.55.26,2.46.49,4.92.44,7.39-.03,1.08.5,1.47,1.49,1.21,1.33-.35,2.69-.3,4.05-.34,1.8-.06,3.56-.31,5.65-.65-4.04-5.69-7.96-11.06-12.38-16.17ZM141.06,156.28c.83,0,1.15.06,1.45,0,3.56-.76,7.12-1.52,10.67-2.33,1.53-.35,1.61-.48.86-1.9-1.43-2.69-2.41-5.51-3.1-8.48-.21-.93.07-2.05-.83-3.16-1.52,2.78-2.08,5.69-3.48,8.24-1.46,2.66-3.3,5-5.58,7.64ZM289.48,142.73c-.04-.53-.06-.85-.1-1.16-.28-2.14-.29-2.15-2.52-1.95-3.64.32-7.28.65-10.93.98-2.22.2-4.44.34-6.65.62-1.63.2-.9,1.57-1.03,2.47-.14.99.48,1.21,1.33,1.12,1.66-.18,3.32-.34,4.98-.52,4.89-.51,9.78-1.03,14.91-1.57ZM133.19,161.9c2.08,1.32,3.35,2.89,5.41,4.02.1-2.56.24-4.77-.15-7.22-1.78.98-3.08,2.25-5.26,3.2Z"/>
    <path class="cls-12" d="M40.88,253.71c.64.59,1.41.87,2.27.89,4.08,2.3,6.77,5.68,8.05,10.2.64,2.25,2.36,3.28,4.52,3.72,1.24.26,2.51.4,3.75.7,5.84,1.38,10.67,4.41,14.53,9,.12.88.6,1.57,1.17,2.21,4.03,8.33.29,15.83-6.11,19.87-1.07.68-2.21,1.27-3.37,1.8-3.24,1.48-6.69,1.96-10.22,2.2-9.49.65-18.58-.79-27.18-4.97-.72-.35-1.4-.86-2.16-1-3.36-.65-5.95-2.56-8.32-4.87-5.77-8.52-4.92-17.27-.72-26.02,2.25-4.68,5.65-8.44,10.09-11.2.47-.29,1.01-.49,1.22-1.08,1.57-.5,3.14-1,4.72-1.5,2.59-.45,5.18-.48,7.76.06Z"/>
    <path class="cls-7" d="M119.53,277.07c-.79.79-.46,1.74-.37,2.65-.58,4.87-1.69,9.57-4.57,13.68-.5.71-1.23,1.27-1.37,2.2-1.27,1.09-2.48,2.26-3.91,3.15-6.3,3.91-13.99,2.65-19.3-3.17-3.68-4.03-5.66-8.83-6.47-14.17-.2-1.34-.33-2.7-.49-4.04-.82-1.25-1.14-3.01-3.11-3.11-.15-.05-.25-.15-.31-.3-.11-.05-.21-.1-.32-.14-6.36-2.09-10.26-7.46-10.21-14.06.01-1.89.12-3.77.61-5.61,1.14-.61,1.27-1.73,1.44-2.83,1.97-2.36,3.73-4.9,6.16-6.87,4.5-3.65,9.65-5.77,15.32-6.72,2.4,0,4.8.01,7.2.02,3.1.61,6.08,1.53,8.69,3.4.25.26.5.51.9.51h0c1.73,1.96,3.71,3.79,4.37,6.43.67,2.64,1.79,5.09,2.71,7.62.95,2.62,1.62,5.31,2.13,8.06.8,4.41.87,8.85.89,13.3Z"/>
    <path class="cls-10" d="M372.48,219.57c-.2-.69-.45-1.37-.59-2.07-1.16-5.8-4.25-10.4-8.57-14.35-6.71-6.15-14.49-9.39-23.63-9.62-5.6-.14-11.17.03-16.74.54-1.75.16-3.5.24-5.23-.33-2.31-.76-3.62-2.36-3.84-4.71-.22-2.34,1-3.96,3.03-4.98,2.78-1.39,5.8-1.72,8.84-1.84,6.66-.25,13.24.59,19.8,1.61,4.65.73,9.26,1.72,13.88,2.6,2.1.4,2.12.42,2.64-1.8,1.69-7.23,3.36-14.46,5.03-21.69.71.1,1.41.2,2.12.31,4.2.67,8.37.84,12.48-.54,4.96,5.12,8.33,11.07,9.42,18.18,1.66,10.74-.97,20.28-8.33,28.34-3.28,3.59-6.87,6.9-10.32,10.33Z"/>
    <path class="cls-1" d="M34.85,156.28c.45,2.21.2,4.45.29,6.67.1,2.24.2,2.41,2.4,2.75.71.11,1.43.09,2.15.14,1.65.12,1.69.12,1.69,1.85-.01,4.47.06,8.94-.12,13.4-.52,13.15-.31,26.31-.41,39.47,0,.7.15,1.45-.35,2.07-4.57-4.57-9.32-8.97-13.67-13.73-11.93-13.05-11.39-33.14,1.06-45.72,2.3-2.32,4.65-4.6,6.98-6.9Z"/>
    <path class="cls-4" d="M249.22,102.05c-.87.13-2.02-.46-2.36.96-.37-1.09-1.89.19-2.09-.94-.16-.91.02-1.88.04-2.83,0-.16-.02-.31-.03-.47.51-2.41.9-4.86,1.54-7.24,3.8-14.02,12.89-22.93,26.59-27.35,2.58-.83,5.26-1.27,7.87-2.01,1.61.22,3.17-.29,4.75-.44,10.93-1.05,21.65.27,32.27,2.77,6.13,1.44,12.21,3.09,17.84,6.02,10.97,5.71,18.28,14.42,21.58,26.41.37,1.35.19,2.8.78,4.1-.06.54-.16,1.09.31,1.52,1.36,8.41.65,16.72-1.4,24.93-.2.79-.12,1.12.42,1.53-.63-.02-1.26-.03-1.89-.05,0-.54-.38-.77-.81-.96-.75-.51-1.51-1.03-2.26-1.54-.84-.6-1.67-1.23-2.53-1.8-8.3-5.45-17.06-10.03-26.25-13.78-6.28-2.57-12.65-4.87-19.28-6.37-.8-.46-1.7-.49-2.58-.62-2.43-.78-4.94-1.23-7.46-1.64-.66-.07-1.32-.15-1.98-.22,0,0-.01.01-.01.01-.06-.36-.31-.4-.61-.35-8.26-1.28-16.56-1.88-24.91-1.62.6-1.76,1.32-2.63,3.68-2.41,4.58.42,9.18.65,13.78,1.03,4.36.37,8.66,1.04,12.95,1.81,6.81,1.23,13.51,2.89,20.14,4.89,7.94,2.4,15.78,5.07,23.26,8.67,3.64,1.75,7.31,3.46,10.62,5.67.22-.2.31-.24.32-.3,1.38-6.36,2.45-12.72,1.72-19.31-.36-3.25-.65-6.49-1.58-9.61-1.35-4.53-3.13-8.83-6.69-12.22-5.4-5.12-11.92-8.16-18.82-10.55-.34-.12-.62,0-.83.28-1.07-.06-1.92-.73-2.9-1.06-4.67-1.59-9.47-2.53-14.34-3.34-4.08-.69-8.2-.76-12.29-1.26-2.58-.32-5.22.08-7.84.29-3.01.24-6,.48-8.96,1.08-5.56,1.13-10.94,2.77-15.57,6.23-.3.09-.65.11-.9.27-5.87,3.96-10.35,9.05-13.14,15.64-1.84,4.36-2.82,8.91-3.65,13.52-.34,1.9,0,2.16,1.99,1.72.08-.02.16-.02.24-.04,2.45-.45,4.71-2.29,7.4-1.02.11.05.3-.07.45-.14.69-.3,1.41-.2,2.13-.22,3.97-.09,4.08-.24,4.07-4.22,0-1.14-.19-2.03-1.33-2.5.55-.17,1.1-.35,1.65-.52,1.08.86.57,2.06.59,3.1.07,3.55.03,3.55,3.22,4.4.07.02.12.1.18.15-2.04.17-4.09.33-6.13.5-3.7-.06-7.34.38-10.89,1.44h-.06Z"/>
    <path class="cls-2" d="M355.43,128.94c.63.02,1.26.03,1.89.05,0,0,.08.04.08.04.2.14.4.27.6.41,8.33,5.21,16.24,10.96,23.11,18.04,1.56,1.6,2.96,3.35,4.04,5.32,2.24,4.08,1.39,7.11-2.61,9.45-.28.16-.55.32-.83.48-4.11,1.38-8.28,1.21-12.48.54-.71-.11-1.41-.21-2.12-.31.54-2.4,1.07-4.81,1.61-7.21.46-2.03.44-2.14-1.48-2.78-5.67-1.88-11.39-3.61-17.24-4.83-.69-.14-1.37-.4-2.31-.68,3.3-5.56,5.56-11.38,6.41-17.69.45-.27.89-.55,1.34-.82Z"/>
    <path class="cls-12" d="M16.91,246.35c.07-.92-.4-1.68-.71-2.48-.83-2.09-1.23-4.24-.88-6.5.66-4.17,3.91-6.25,7.98-5.12,1.31.36,2.44,1.11,3.62,1.74.55.57,1.13,1.12,1.66,1.7,2.86,3.14,4.51,6.76,4.1,11.09-.37,3.86-3.08,5.98-6.92,5.54-2.24-.26-4.04-1.41-5.66-2.88-1.1-1-2.13-2.07-3.19-3.1Z"/>
    <path class="cls-3" d="M17.8,293.45c2.37,2.31,4.96,4.22,8.32,4.87.76.15,1.44.66,2.16,1,8.6,4.19,17.69,5.63,27.18,4.97,3.52-.24,6.98-.73,10.22-2.2,1.16-.53,2.29-1.12,3.37-1.8,6.4-4.04,10.14-11.53,6.12-19.87.67-.33,1.37-.49,2.11-.37-.33,1.54.74,2.73,1.03,4.12,1.54,7.37-.8,12.54-6.18,16.88-2.9,2.34-6.26,3.76-9.84,4.65-1.77.44-3.63.51-5.42.62-7.59.45-15.16-.05-22.31-2.81-4.72-1.83-9.67-3.24-13.87-6.24-1.32-.94-2.91-1.8-2.89-3.81Z"/>
    <path class="cls-10" d="M292.16,273.4c5.82,1.2,11.63,2.41,17.55,3.09,1.72.2,3.5-.07,5.16.62-3.13,3.31-6.3,6.59-9.7,9.64-3.64-3.69-7.28-7.37-10.91-11.07-.72-.74-1.4-1.52-2.1-2.28Z"/>
    <path class="cls-12" d="M8.73,254.52c-.61-1.02-1.36-1.96-1.72-3.12-.89-2.88.59-4.92,3.6-4.97,2.18-.04,3.99.93,5.73,2.1,1.28,1.28,2.62,2.53,3.22,4.31,1.05,3.11-.49,5.21-3.75,5.16-1.22-.02-2.31-.44-3.4-.92-1.4-.62-2.46-1.7-3.68-2.56Z"/>
    <path class="cls-1" d="M106.09,87.72c2.26,2.8,3.27,6.28,5.5,9.4-1.76.31-3.09.23-4.39-.03-2.32-.46-4.6-.17-6.87.28-2.27.45-3.66,2.11-5.12,4.07-.28-1.61-.81-2.89-1.69-4.01,3.14-3.1,6.27-6.21,9.42-9.3.62-.6,1.28-1.16,1.92-1.74.32.53.68,1.02,1.24,1.33Z"/>
    <path class="cls-3" d="M8.73,254.52c1.22.86,2.28,1.94,3.68,2.56,1.09.48,2.18.91,3.4.92,3.26.05,4.8-2.06,3.75-5.16-.61-1.79-1.94-3.03-3.22-4.31.19-.72.38-1.45.57-2.17,1.06,1.04,2.09,2.11,3.19,3.1,1.62,1.47,3.41,2.62,5.66,2.88,3.83.44,6.55-1.68,6.92-5.54.41-4.33-1.23-7.95-4.1-11.09-.53-.59-1.11-1.13-1.66-1.7.66-.05,1.22.12,1.75.56,4.55,3.69,6.64,8.39,5.89,14.25-.19,1.46-.96,2.66-1.95,3.74-.61.67-.14.95.51,1.1-1.57.5-3.15,1-4.72,1.5-1.51-1.35-3.64-.92-5.32-1.86-.62-.35-1.25.23-1.36.95-.11.7-.03,1.44-.1,2.15-.18,1.92-1.48,3.3-3.38,3.45-1.83.14-3.62.07-5.33-.92-1.18-.69-2.17-1.61-3.33-2.31-.75-.46-.97-1.23-.84-2.1Z"/>
    <path class="cls-12" d="M10.78,267.47c-3-.4-5.49-1.67-7.2-4.2-.84-1.23-1.27-2.64-.45-4.04.83-1.4,2.29-1.72,3.76-1.57,2.98.31,5.45,1.65,7.17,4.15.84,1.22,1.31,2.61.46,4.03-.84,1.41-2.28,1.58-3.74,1.63Z"/>
    <path class="cls-12" d="M1.46,275.34c-.97-1.2-2.06-2.43-1.08-4.06.93-1.55,2.57-1.79,4.21-1.75,2.25.06,4.16,1.01,5.84,2.45,1.53,3.32.39,5.09-3.24,5.22-2.16.07-3.96-.8-5.73-1.86Z"/>
    <path class="cls-12" d="M2.49,285.71c-1.48-2.35-.88-3.77,1.84-4.33,2.17-.45,4.04.17,5.69,1.6.47,2.68-.3,3.62-2.99,3.85-1.66.14-3.11-.39-4.54-1.11Z"/>
    <path class="cls-3" d="M1.46,275.34c1.77,1.06,3.57,1.93,5.73,1.86,3.63-.12,4.76-1.9,3.24-5.22,1.54,0,2.4.94,2.51,2.31.19,2.34.14,2.84-1.48,3.87-3.09,1.97-7.39.45-9.33-1.12-.54-.44-.69-1.04-.68-1.7Z"/>
    <path class="cls-9" d="M77.28,280.06c-.75-.12-1.44.04-2.11.37-.57-.64-1.05-1.33-1.17-2.21,1.02-.13,2.05-.24,3.07-.4q3.07-.47,2.88-3.56c1.97.11,2.28,1.87,3.11,3.11-1.13.19-.34,1.89-1.61,2.01-.93.09-1.86.26-2.78.4-.46.07-.92.18-1.38.27Z"/>
    <path class="cls-3" d="M2.49,285.71c1.43.72,2.88,1.25,4.54,1.11,2.68-.23,3.45-1.17,2.99-3.85,2.03.69,2.73,2.83,1.41,4.37-2.13,2.49-7.77,1.46-8.94-1.63Z"/>
    <path class="cls-13" d="M358.3,102.54c-.47-.43-.37-.98-.31-1.52.29.47.42.97.31,1.52Z"/>
    <path class="cls-4" d="M358,129.44c-.2-.14-.4-.27-.6-.41.2.14.4.27.6.41Z"/>
    <path class="cls-10" d="M244.78,98.77c.01.16.04.32.03.47-.02.95-.2,1.92-.04,2.83.2,1.13,1.72-.15,2.09.94-.1.9-.16,1.8.07,2.7,0,0-.02-.03-.02-.03-.41,4.21-.25,8.44-.29,12.66-.06,6.46-.03,12.92-.05,19.38,0,2.06-.03,2.02-2.14,2.48-4.28.94-8.54,1.94-12.82,2.89-1,.22-2.01.36-2.94.53-.41-.57-.34-1.06-.34-1.53-.02-11.96-.03-23.93-.03-35.89,0-.4.06-.79.08-1.19,4.89-3.57,10.27-5.88,16.39-6.23Z"/>
    <path class="cls-1" d="M118.54,135.24c-.69-.42-.81-1.15-.93-1.85-.49-2.9-.8-5.82-1.05-8.75-.67-8.04-.37-16.08-.4-24.12,0-.75-.32-1.61.44-2.23,3.63,3.74,7.26,7.48,11.08,11.03.83,1.12.44,2.47.66,3.71.42,2.37.19,4.77.34,7.16.04.6-.26,1.07-.53,1.55-4.55,3.55-7.75,8.05-9.61,13.52Z"/>
    <path class="cls-15" d="M235.89,311.78c2.3.82,4.48,1.54,6.62,2.39,2.08.83,4.06,1.9,5.74,3.42,3,2.71,2.99,5.74-.08,8.38-2.84,2.45-6.29,3.76-9.8,4.86-7.36,2.3-14.95,3.34-22.61,3.85-7.99.53-15.97.45-23.94-.42-.32-.03-.64,0-.96-.07-1.16-.23-1.68.15-1.93,1.41-.63,3.14-.92,6.32-1.19,9.5-.08.96-.28,1.6-1.21,2.07-1.23.63-2,1.8-2.82,2.89-.47.62-.72,1.42-1.69,2.04-.17-2.52-.18-4.86.02-7.2.28-3.26.71-6.51,1.57-9.68.52-1.92.47-2-1.45-2.35-3.78-.7-7.48-1.64-11.07-3.01-2.39-.91-4.72-1.98-6.72-3.62-3.5-2.86-3.49-6.18.01-9.02,2.33-1.89,5.04-3.07,7.84-4.04,5.99-2.07,12.19-3.2,18.47-3.86,2.94-.31,5.89-.5,8.84-.67,1.17-.07,2.13-.42,3.06-1.14,7.66-5.93,16.26-9.73,25.82-11.35,3.72-.63,7.45-.87,11.22-.73,1.94.07,2.04.22,1.91,2.1-.31,4.51-1.92,8.53-4.46,12.23-.4.58-.98,1.06-1.17,2.03ZM190.93,329.41c3.62.67,7.12.78,10.61.91,5.26.19,10.53.06,15.78-.37,6.05-.5,12.04-1.34,17.88-3.03,2.68-.78,5.33-1.72,7.57-3.46,2.8-2.18,2.74-4.48-.13-6.61-2.21-1.64-4.79-2.48-7.36-3.34-.99-.33-1.49.14-2.07.7-4.09,3.92-8.88,6.72-14.14,8.76-7.51,2.91-15.26,3.89-23.25,2.86-3.71-.48-3.07-1.12-4.64,2.57-.09.21-.12.46-.25,1.01ZM195.14,321.56c8.63,3.48,27.43-1.27,35.04-9.27-1.08-.22-2.05-.44-3.04-.61-5.99-1.02-12.02-1.54-18.1-1.55-5.41-.01-3.9-.87-8.01,3.37-2.32,2.39-4.35,5.05-5.9,8.06ZM198.91,310.48c-.97-.36-1.76-.21-2.52-.13-4.52.44-9.05.86-13.51,1.8-3.28.69-6.52,1.52-9.61,2.85-1.47.63-2.9,1.37-4.08,2.47-1.85,1.72-1.85,3.63-.06,5.4.98.97,2.16,1.63,3.39,2.21,3.05,1.44,6.26,2.37,9.56,3,4.8.92,3.34,1.2,5.73-2.76.67-1.1.28-1.53-.72-1.94-2.08-.85-3.98-2.02-5.74-3.42-.4-.32-1.01-.58-.76-1.33.67-.39,1.42.04,2.07-.18,2.49-.82,4.72-.57,6.71,1.28.49.46,1.15.49,1.64-.2,2.29-3.24,4.94-6.18,7.89-9.05ZM207.26,308.18c7.95.49,15.82.98,23.57,2.55.64.13,1.25.15,1.77-.4,3.3-3.5,5.61-7.48,6.34-12.58-11.82.04-22.34,3.37-31.68,10.44Z"/>
    <path class="cls-1" d="M138.75,262.19c1.74-2.12,3.49-4.25,5.59-6.8.6,4.71,1.01,8.89,1.06,13.11-1.78-1.31-3.46-2.7-4.8-4.48-.51-.68-1.22-1.22-1.85-1.82Z"/>
    <path class="cls-10" d="M275.8,257.45c.12-.72.55-1.27,1.04-1.81-.06.78.09,1.58-.47,2.25-.19-.14-.38-.29-.57-.43Z"/>
    <path class="cls-6" d="M206.27,287.67c-6.02-.17-11.76-.53-17.45-1.43-2.08-.33-2.07-.33-2.18-2.35-1.34-23.86-1.71-47.73-1.59-71.62.06-11.66.42-23.32.73-34.98.05-1.68.29-3.35.26-5.02-.03-1.35.58-1.99,1.73-2.51,4.24-1.92,8.69-3.21,13.22-4.17,9.54-2.02,19.15-3.57,28.9-4.04,5.04-.24,10.06.16,15.01,1.2,1.18.25,2.43.38,2.19,2.14-.1.74.5.89,1.13.86.64-.03,1.29.01,1.91-.12,2.56-.54,4.84.15,7.13,1.28,6.68,3.3,12.43,7.79,17.47,13.24,1.02,1.1,1.36,2.19,1.07,3.68-1.72,8.7-.53,17.16,2.27,25.46.99,2.92,2.76,5.4,4.85,7.63.76.81,1.16,1.62,1.07,2.76-.79,9.51-2.36,18.85-5.83,27.79-5.58,14.35-15.72,24.4-29.38,31.11-9.2,4.52-19.01,6.94-29.14,8.2-4.53.56-9.08.72-13.36.9ZM217.35,224.55s.05,0,.07,0c0,7.9-.01,15.81,0,23.71,0,1.96.05,2.01,2.04,1.93,4.4-.19,8.77-.69,12.95-2.14,9.35-3.23,16.13-8.85,17.85-19.25,1.24-7.52.84-14.75-2.49-21.74-1.6-3.37-4.11-5.63-7.45-7.08-1.61-.7-3.29-1.2-5.03-1.5-5.17-.88-10.34-.62-15.51.04-2.41.3-2.43.29-2.43,2.79,0,7.75,0,15.49,0,23.24Z"/>
    <path class="cls-6" d="M318.04,226.81c-4.51-.07-9.23.31-13.92-.43-9.48-1.51-16.65-6.62-22.17-14.21-2.55-3.51-3.28-7.78-4.01-11.94-1.77-10.07-.51-19.75,4.39-28.81,6.43-11.88,16.47-19.07,29.47-22.27,7.77-1.91,15.66-1.97,23.58-1.23,9.91.93,19.51,3.29,28.95,6.34.3.1.61.21.92.27,1.21.24,1.46.89,1.16,2.08-.97,3.87-1.83,7.77-2.73,11.65-1.1,4.74-2.2,9.49-3.32,14.22-.43,1.82-.46,1.84-2.23,1.48-7.13-1.44-14.28-2.74-21.52-3.41-5.42-.5-10.84-.8-16.24.19-1.9.35-3.72.93-5.36,1.98-2.48,1.59-3.45,3.9-3.15,6.77.29,2.77,1.72,4.78,4.26,5.92,1.86.83,3.85,1.03,5.87.83,5.49-.52,11-.78,16.52-.65,2.48.06,4.94.32,7.38.76,8.28,1.52,14.57,6.23,19.85,12.51,2.04,2.43,3.11,5.35,3.93,8.39,3.33,12.36,2.4,24.24-4.15,35.4-5.86,9.97-14.62,16.3-25.59,19.69-7.26,2.24-14.73,2.8-22.28,2.54-13.54-.45-26.54-3.61-39.35-7.77-1.58-.51-1.59-.56-1.2-2.22,1.98-8.47,3.97-16.94,5.96-25.41.44-1.86.52-1.95,2.42-1.59,5.57,1.04,11.18,1.9,16.81,2.56,8.02.93,16.05,1.78,24.13.72,2.15-.28,4.26-.75,6.22-1.68,2.65-1.26,4.43-3.18,4.22-6.33-.2-3.01-1.82-5.02-4.56-6.19-1.67-.71-3.42-.78-5.18-.7-2.95.14-5.9.34-9.05.53Z"/>
    <path class="cls-14" d="M79.94,274.26q.19,3.08-2.88,3.56c-1.02.16-2.04.27-3.07.4-3.85-4.6-8.69-7.62-14.53-9-1.23-.29-2.5-.44-3.75-.7-2.15-.44-3.88-1.47-4.52-3.72-1.28-4.52-3.98-7.9-8.05-10.2-.06-11.5-.18-23.01-.15-34.51.04-14.38.18-28.76.33-43.14.05-4.87.23-9.74.36-14.61.05-1.79.08-1.85,1.83-2.15,7.17-1.22,14.37-2.15,21.64-2.47,3.67-.16,7.33-.52,11.01-.42,2.04.05,2.06.03,2.09,2.16.06,5.35.11,10.7.15,16.06.06,7.27.1,14.54.16,21.81,0,.45-.16.95.31,1.48.63-.3,1-.92,1.42-1.44,11.15-13.59,22.27-27.2,33.44-40.77,2.5-3.04,1.68-3.04,5.25-.81,9.06,5.65,17.08,12.61,24.83,19.9,1.31,1.23,1.3,1.29.06,2.92-5.72,7.49-11.7,14.79-17.65,22.1-3.18,3.9-6.39,7.78-9.57,11.68-1.34,1.64-1.32,1.65.14,3.3,9.05,10.24,17.84,20.7,26.58,31.2,1.45,1.75,1.75,1.44.12,3.58-6.64,8.73-14.15,16.7-21.83,24.5-.49.5-1.13.87-1.7,1.29-.35-.24-.54-.58-.55-1.01,0-2.31-.17-4.6-.43-6.9-.31-2.77-.81-5.48-1.47-8.19-.98-4.04-2.94-7.73-3.98-11.75-.65-2.51-2.44-4.44-4.37-6.18-.52-.47-1.1-.62-1.76-.57h0c-.17-.4-.5-.52-.9-.51-2.61-1.87-5.59-2.78-8.69-3.39-2.4-.72-4.8-.71-7.2-.02-5.67.95-10.82,3.06-15.32,6.72-2.43,1.97-4.19,4.51-6.16,6.87-.56-.35-.62-.9-.58-1.47.09-1.45-.18-2.83-.65-4.21-.59-1.75-.47-1.88,1.35-1.63,3.34.47,4.59-1.06,5.34-3.21.46-1.31.43-2.83-.2-4.2-.34-.73-.67-1.45-.53-2.28,1.27.95,2.19,2.32,3.65,3.05,2.42,1.21,4.52.13,4.92-2.54.46-3.06-1.45-7.05-4.12-8.61-2.65-1.55-4.95-.42-5.33,2.64-.18,1.41.04,2.79.36,4.17-1.18-.04-1.69-1.05-2.41-1.72-.7-.66-1.34-1.33-2.42-1.16-.35-.17-.71-.34-1.06-.51-1.49-.71-3.03-1.11-4.47-.02-1.49,1.13-1.68,2.79-1.35,4.5.25,1.29.55,2.58,1.16,3.77-.08,1.2-.87,1.4-1.86,1.34l-.03-.02c-.12-.25-.32-.38-.6-.39-2.45-1.15-4.89-2.21-7.72-2-4.43.33-6.85,3.67-5.75,7.96.66,2.58,2.3,4.5,4.02,6.39-.09.72.33,1.21.81,1.63,2.4,2.07,5.19,3.36,8.33,3.69,2.44.25,4.74-.19,6.59-2.02.3-.3.71-.33,1.11-.32-.5,1.84-.6,3.72-.61,5.61-.05,6.6,3.85,11.97,10.21,14.06,0,0,.13.16.13.16l.2-.02c.05.15.15.25.31.3ZM100.82,234.43c.01.85.42,1.37,1.27,1.44.79.06,1.62.18,2.27-.46,2.68-2.61,2-7.32-.18-8.76-.36-.24-.73-.3-1.13-.27-2.26-1.2-3.56-.7-4.19,1.69-.66,2.51-.11,4.68,1.96,6.37ZM89.76,234.51c1.2,2.25,3.47,2.59,5.14.82,2.75-2.93,1.35-9.15-1.5-10.72-.25-.14-.61-.1-.92-.14-3.01-1.75-4.92-.86-5.45,2.57-.12.78-.06,1.56.07,2.35.33,2.01,1.3,3.67,2.66,5.13Z"/>
    <path class="cls-6" d="M183.48,260.31c.11,3.04.25,6.79.36,10.55.07,2.19.06,2.23-2.01,2.67-7.03,1.52-14.13,2.66-21.25,3.63-3.32.45-6.66.81-9.99,1.21-1.95.23-2.03.22-2.21-1.73-.39-4.14-.72-8.28-1.07-12.41-.25-2.94-.4-5.9-.78-8.83-.22-1.71,0-3.15,1.23-4.39.28-.28.45-.66.72-.95.91-.98,1.07-1.94-.04-2.87-2.63-2.22-2.97-5.18-3.14-8.4-.61-11.17-1.46-22.32-2.18-33.48-.37-5.66-.64-11.33-1-16.99-.07-1.05.32-1.82.94-2.61,1.97-2.52,3.92-5.05,5.81-7.63,1.03-1.41,1.01-1.49-.29-2.73-2.02-1.93-4.06-3.85-6.16-5.7-.9-.8-1.37-1.63-1.38-2.87-.01-2.07-.17-4.15-.35-6.22-.1-1.15.23-1.68,1.45-1.98,5.13-1.23,10.3-2.26,15.49-3.14,5.36-.91,10.77-1.45,16.18-1.94.56-.05,1.12-.02,1.68-.08,1.09-.12,1.56.24,1.63,1.43.22,3.51.61,7,.86,10.51.88,12.43,1.73,24.86,2.58,37.3.97,14.11,1.75,28.23,2.45,42.35.24,4.87.19,9.74.49,15.32Z"/>
    <path class="cls-14" d="M74.22,128.18c0-2.3.1-4.26-.02-6.21-.43-6.79-.19-13.58-.25-20.37,0-1.24.28-1.82,1.67-1.99,3.48-.42,6.94-1.07,10.41-1.6.71-.11,1.43-.19,2.14-.17,3.31.1,4.5,1.25,5.03,4.53.45,2.78.44,5.57.48,8.37.2,15.83-.64,31.63-1.33,47.43-.07,1.49-.51,2.33-1.99,2.75-2.52.71-4.95,1.77-7.66,2.07-.47-1.64-.22-3.23-.24-4.8-.05-3.6-.13-2.81-3.06-2.99-1.51-.09-3.04-.03-4.55.12-1.37.13-2.16-.39-2.95-1.5-4.8-6.79-9.8-13.42-14.87-20.01-.63-.82-1.28-1.62-2.24-2.84-.16,2.31.36,4.12.61,5.92.82,5.86,1.23,11.75,1.62,17.65.11,1.73.02,1.88-1.81,2.08-3.81.42-7.59,1.07-11.37,1.7-2.15.36-2.15.39-2.29,2.56-.01.16,0,.32-.01.48-.13,2.37-.18,2.37-2.5,2.25-1.15-.06-1.66-.37-1.72-1.66-.41-8.94-.85-17.87-1.38-26.8-.46-7.66-.57-15.33-.46-23,.03-2.08.29-4.14.55-6.2.35-2.79,1.8-4.72,4.4-5.79,3.93-1.62,8.07-1.8,12.24-1.78,1.25,0,1.78.92,2.4,1.74,4.79,6.4,9.29,13,13.67,19.68,1.78,2.71,3.55,5.43,5.47,8.37Z"/>
    <path class="cls-14" d="M150.17,114.91c-.41,7.68-.14,15.47-1.92,23.08-1.82,7.76-5.3,14.53-11.79,19.47q-4.36,3.32-8.71.24c-2.55-1.8-5.13-3.53-7.84-5.09-2.96-1.71-2.3-1.55-4.37.84-1.67,1.94-3.24,3.96-4.88,5.92-1.08,1.29-1.16,1.31-2.49.27-2.49-1.94-4.45-4.34-5.98-7.11-2.85-5.18-4.49-10.78-5.12-16.61-.87-8.02-1.35-16.08-1.11-24.17.08-2.72.3-5.43.98-8.07.76-2.95,2.36-4.26,5.42-4.52,3.53-.3,7.02.32,10.52.51.82.04,1.1.49,1.09,1.24-.02,1.2-.03,2.4-.03,3.6,0,9.11-.02,18.22,1.24,27.27.34,2.46.88,4.87,2.12,7.07,2.23,3.93,6.1,4.82,9.71,2.06,2.89-2.21,4.32-5.29,4.4-8.93.09-4.72-.46-9.41-.69-14.12-.27-5.42-.72-10.86.21-16.26.56-3.26,2.05-4.57,5.32-5.32,2.81-.64,5.57-.07,8.34.16,1.03.09,2.06.36,3.09.37,1.24.02,1.58.6,1.7,1.76.54,5.42.34,10.86.78,16.33Z"/>
    <path class="cls-14" d="M266.75,100.05c8.36-.26,16.66.34,24.91,1.62.2.12.4.23.61.35,0,0,.01-.01.01-.01-.05,2.95-.07,5.91-.17,8.86-.09,2.81-.18,2.88-2.98,3.14-7.16.67-14.32,1.33-21.47,1.99-1.86.17-1.88.17-1.88,1.93,0,1.68.09,3.36.04,5.03-.04,1.18.36,1.47,1.55,1.36,7.31-.68,14.64-1.28,21.96-1.91.31-.03.64-.1,1.02.25.17.86-.23,1.74-.41,2.66-.66,3.45-1.36,6.91-1.12,10.45.08,1.21-.34,1.7-1.58,1.79-5.81.45-11.62.98-17.43,1.48-.4.03-.8.04-1.2.08q-2.54.22-2.54,2.85c0,.88.01,1.76.07,2.63.17,2.74.18,2.75,2.82,2.47,6.51-.69,13.02-1.35,19.52-2.12,1.22-.14,1.65.24,2.1,1.29,1.17,2.75,2.04,5.5,1.72,8.56-.1.95-.29,1.69-1.08,2.25-.33.23-.66.48-.89.8-1.84,2.48-4.5,2.94-7.35,3.22-10.18,1.01-20.38,1.69-30.58,2.34-.24.02-.48.02-.72.03-2.92.1-2.59.19-2.66-2.47-.31-13.58-.58-27.16-.39-40.74.08-5.51.23-11.02.37-16.53.01-.55.14-1.1.22-1.65,0,0,.06,0,.06,0,2.21.13,4.36-.42,6.52-.71,1.45-.2,3,.03,4.37-.72,2.04-.17,4.09-.33,6.13-.5,0,0,.23.05.23.05l.21-.11Z"/>
    <path class="cls-14" d="M152.12,135.87c.5-19.97,13.44-33.4,27.58-36.4,7.38-1.57,14.45-.65,21.02,3.25.34.2.69.4,1.04.6,2.74,1.54,3.19,2.51,1.94,5.41-1.98,4.59-5.22,8.17-9.33,11-1.05.72-2.01.65-3.12.09-2.39-1.18-4.93-1.83-7.61-1.94-1.8-.07-3.5.27-5.12,1.02-5.57,2.54-11.3,10.51-7.62,18.94,2.81,6.44,10.73,8.48,16.23,4.15,2.21-1.74,4.69-2.68,7.43-3.06,2.33-.32,4.26.45,5.76,2.24,2.62,3.12,3.35,6.81,3.19,10.76-.03.82-.62,1.26-1.11,1.77-4.86,5.03-10.91,7.68-17.69,8.84-1.02.18-2.06.27-3.09.4-1.12.14-1.77-.12-1.85-1.46-.17-2.87-.49-5.73-.75-8.59-.16-1.79-.16-1.83-2.01-1.72-6.06.36-12.11.93-18.11,1.91-1.38.23-2.02-.19-2.67-1.29-1.97-3.37-3.09-7.01-3.6-10.84-.25-1.9-.6-3.79-.52-5.07Z"/>
    <path class="cls-14" d="M304.3,104.48c6.63,1.5,13.01,3.81,19.28,6.37,9.18,3.75,17.95,8.33,26.25,13.78.87.57,1.69,1.2,2.53,1.8-.48,6.8-2.44,13.14-5.93,19-1.1,1.84-1.21,1.71-2.99,1.39-5.66-.99-11.38-1.58-17.14-1.51-10.04.12-19.67,1.94-28.46,7.07-1.07.62-1.62.53-2.28-.54-2.15-3.43-3.65-7.11-4.17-11.12-1.5-11.68,1.15-22.31,8.3-31.74,1.31-1.73,2.97-3.11,4.62-4.5ZM334.42,127.83c.06-4.96-2.79-9.05-7.1-10.19-1.41-.37-2.85-.28-4.29-.27-9.53.09-15.01,8.81-14.47,16.06.5,6.79,6.57,11.6,12.9,10.26,7.14-1.51,12.87-8.53,12.96-15.86Z"/>
    <path class="cls-14" d="M208,134.33c-.06-10.06-.09-20.13.76-30.17.06-.71.22-1.42.36-2.12.6-2.94,2.31-4.7,5.21-5.19,3.4-.58,6.66-.09,9.83,1.31,1.44.64,1.95,1.53,1.94,3.13-.06,9.91-.01,19.82,0,29.73,0,4.39.02,8.79.07,13.18.02,1.84.05,1.83,1.92,1.64,3.59-.37,7.05-1.35,10.55-2.16,1.4-.32,2.79-.69,4.19-1,3.77-.85,3.75-.85,3.79,3.04.04,4.39.13,8.79.18,13.18.02,1.87-.08,2.02-1.84,1.67-6.48-1.27-13-1.61-19.55-.9-4.44.48-8.87,1.11-13.31,1.67-.4.05-.79.15-1.18.2-2.12.27-2.09.27-2.26-1.83-.56-7.18-.45-14.37-.65-21.56-.04-1.28,0-2.55,0-3.83Z"/>
    <path class="cls-5" d="M183.76,165.38c.49-.59,1.16-.8,1.88-.93,5.43-.92,10.37-3.02,14.86-6.2,1.71-1.21,3.06-2.8,4.49-4.29.75-.78.98-1.83.84-2.9-.45-3.38-.86-6.74-2.68-9.8-2.03-3.4-6.69-5.31-10.03-4.35-2.89.83-5.53,1.97-7.89,3.8-3.21,2.5-9.33,1.4-11.47-2.09-2.82-4.6-2.64-8.71.7-13.58,1.61-2.35,3.69-3.89,6.36-4.77,1.49-.49,2.95-.56,4.46-.17,2.09.53,4.19,1.03,6.07,2.11.95.54,1.76.43,2.7-.02,4.81-2.3,8-6.21,10.67-10.64.41-.68.75-1.41,1.13-2.11.03-.06.12-.08.32-.22.29.69.27,1.41.11,2.01-.65,2.36-.39,4.76-.4,7.14-.03,8.31-.13,16.62.04,24.92.1,5.01.56,10.02.44,15.04-.03,1.24,1.07,2.51.11,3.68-.84,1.03-2.26.63-3.38.85-5.8,1.15-11.37,3.03-16.92,4.98-.8-.82-1.6-1.63-2.4-2.45Z"/>
    <path class="cls-1" d="M140.11,190.16c1.05,16.81,2.1,33.5,3.15,50.4-2.02-1.44-3.24-3.43-4.7-5.16-5.51-6.52-11.03-13.04-16.68-19.44-.26-.3-.51-.61-.79-.9-.73-.77-.7-1.45.01-2.29,1.76-2.07,3.42-4.21,5.13-6.32,4.13-5.08,8.25-10.16,12.4-15.23.33-.41.58-.97,1.48-1.06Z"/>
    <path class="cls-1" d="M82.55,193.06c0-4.88,0-9.5,0-14.12,0-3.99.01-7.99-.05-11.98-.02-1.26.4-1.83,1.7-2.07,2.91-.53,5.69-1.54,8.44-2.61,1.79-.7,1.85-.69,1.84-2.79-.03-6.31.78-12.59.58-19.1.8.39.83,1,.96,1.56,1.11,4.77,2.81,9.31,5.46,13.46,1.52,2.38,3.33,4.48,5.66,6.11.84.59.9,1.11.22,1.93-5.14,6.21-10.24,12.45-15.35,18.68-2.53,3.09-5.05,6.18-7.57,9.27-.45.55-.8,1.19-1.88,1.66Z"/>
    <path class="cls-10" d="M293.16,225.33c.84-.02,1.52.44,2.24.76,3.55,1.52,7.25,2.43,11.1,2.68,6.46.42,12.91.16,19.35-.38,1.77-.15,3.51-.15,5.21.41,2.11.69,3.7,2.57,3.71,4.53,0,2.08-1.23,3.35-3.01,4.21-2.26,1.1-4.69,1.47-7.16,1.75-4.71.54-9.41.25-14.09-.13-6.27-.5-12.53-1.22-18.72-2.43,1.19-3.72,1.33-7.56,1.37-11.41Z"/>
    <path class="cls-14" d="M135.29,83.23c-.18.83-.87,1.02-1.37,1.36-5.36,3.61-10.79,7.1-16.36,10.38-.14.08-.27.17-.41.25-3.21,1.86-3.24,1.87-5.04-1.26-.87-1.52-1.61-3.12-2.44-4.66-.46-.85-.34-1.45.5-2.01,6.19-4.09,12.32-8.26,18.83-11.83.99-.54,1.63-.66,2.24.55,1.09,2.13,2.36,4.16,3.54,6.24.19.34.36.7.5.99Z"/>
    <path class="cls-10" d="M259.45,165.32c8.46-.79,16.86-1.43,25.86-2.44-3.88,5.08-6.59,10.22-8.48,16.26-5.28-5.56-10.85-10.23-17.38-13.82Z"/>
    <path class="cls-5" d="M118.54,135.24c1.86-5.46,5.06-9.97,9.61-13.52.82.13.94.7.94,1.4,0,3.42.09,6.84-.02,10.26-.09,2.85-2.44,5.66-5.07,6.65-1.39.52-2.44.26-3.47-.68-1.21-1.11-2.18-2.33-2-4.11Z"/>
    <path class="cls-8" d="M293.16,225.33c-.04,3.85-.18,7.69-1.37,11.41-2.13-.32-4.25-.63-6.38-.95-1.04-.16-1.52-.65-1.26-1.81.99-4.44,1.43-8.97,1.92-13.84,2.33,1.68,4.5,3.24,6.67,4.8.15.14.3.28.45.42l-.03-.03Z"/>
    <path class="cls-10" d="M292.78,115.77c-.1,1.43-.83,2.51-1.2,3.69-.23.74-.92.75-1.57.81-3.49.3-6.97.61-10.46.92-3.33.29-6.66.57-9.98.87-1.55.14-1.57.12-1.69-1.47-.03-.4-.02-.8-.06-1.19-.1-1.01.34-1.38,1.36-1.47,4.91-.43,9.82-.93,14.73-1.39,2.92-.27,5.84-.51,8.87-.77Z"/>
    <path class="cls-1" d="M57.89,138.97c4.41,5.1,8.33,10.48,12.38,16.17-2.09.34-3.85.59-5.65.65-1.35.04-2.71-.01-4.05.34-1,.26-1.52-.13-1.49-1.21.06-2.48-.18-4.93-.44-7.39-.3-2.84-.5-5.7-.75-8.55Z"/>
    <path class="cls-1" d="M183.76,165.38c.8.82,1.6,1.63,2.4,2.45-2.11,1.29-2.3,3.36-2.33,5.54-.14,10.04-.82,20.07-.57,30.46-.57-1.24-.77-2.21-.8-3.24-.09-2.63-.24-5.24-.46-7.87-.49-5.71-.73-11.44-1.13-17.16-.18-2.7-.43-5.39-.74-8.08-.27-2.39-.05-2.68,2.29-2.55.51.03.91.26,1.34.44Z"/>
    <path class="cls-5" d="M141.06,156.28c2.27-2.64,4.12-4.98,5.58-7.64,1.4-2.55,1.97-5.46,3.48-8.24.9,1.11.61,2.23.83,3.16.68,2.97,1.67,5.79,3.1,8.48.75,1.42.67,1.54-.86,1.9-3.55.82-7.11,1.57-10.67,2.33-.3.06-.62,0-1.45,0Z"/>
    <path class="cls-10" d="M289.48,142.73c-5.13.54-10.02,1.05-14.91,1.57-1.66.17-3.32.34-4.98.52-.85.09-1.47-.13-1.33-1.12.12-.9-.6-2.27,1.03-2.47,2.21-.28,4.43-.42,6.65-.62,3.64-.33,7.28-.66,10.93-.98,2.24-.2,2.24-.19,2.52,1.95.04.31.05.62.1,1.16Z"/>
    <path class="cls-3" d="M109.43,241.66c.66-.05,1.24.1,1.76.57,1.92,1.74,3.71,3.67,4.37,6.18,1.05,4.02,3,7.71,3.98,11.75.66,2.71,1.16,5.41,1.47,8.19.26,2.3.42,4.59.43,6.9,0,.42.19.76.55,1.01-.89,1.9-.91,1.91-2.44.82-.02-4.45-.09-8.9-.89-13.3-.5-2.75-1.18-5.44-2.13-8.06-.92-2.54-2.04-4.99-2.71-7.62-.67-2.64-2.64-4.47-4.37-6.43Z"/>
    <path class="cls-10" d="M294.27,102.23c2.52.4,5.02.86,7.46,1.64-2.79,2.63-5.26,5.52-7.46,8.84v-10.48Z"/>
    <path class="cls-5" d="M133.19,161.9c2.18-.95,3.48-2.22,5.26-3.2.39,2.45.25,4.66.15,7.22-2.06-1.14-3.34-2.7-5.41-4.02Z"/>
    <path class="cls-3" d="M355.43,128.94c-.45.27-.89.55-1.34.82.15-.6-.17-1.35.53-1.79.42.19.8.42.81.96Z"/>
    <path class="cls-4" d="M246.91,105.67s.02.03.02.03c0,0-.02-.03-.02-.03Z"/>
    <path class="cls-10" d="M293.19,225.36c-.15-.14-.3-.28-.45-.42.27.01.36.21.45.42Z"/>
    <path class="cls-3" d="M70.52,230.16c1.08-.18,1.72.5,2.42,1.16.72.67,1.23,1.68,2.41,1.72.07.1.08.21.03.33.14.21.29.41.43.62.08.1.1.22.06.34-.15.84.19,1.55.53,2.28.63,1.37.66,2.89.2,4.2-.75,2.15-2,3.68-5.34,3.21-1.82-.25-1.94-.12-1.35,1.63.46,1.38.74,2.76.65,4.21-.03.57.03,1.12.58,1.47-.17,1.1-.3,2.22-1.44,2.83-.4,0-.81.02-1.11.32-1.85,1.82-4.15,2.27-6.59,2.02-3.15-.33-5.93-1.61-8.33-3.69-.49-.42-.9-.91-.81-1.63.73.17,1.2.76,1.79,1.15,2.53,1.64,5.26,2.57,8.32,2.34,3.83-.29,6.03-2.9,5.72-6.73-.08-.97-.43-1.84-.79-2.73-1.02-2.53-2.99-4.25-4.96-5.97.99.07,1.78-.14,1.86-1.34,1.25.95,1.96,2.43,3.34,3.28,1.96,1.21,4.09,1.53,5.34.49,1.61-1.34,1.55-3.13,1.18-5.01-.54-2.72-2.34-4.6-4.14-6.5Z"/>
    <path class="cls-3" d="M92.63,237.74c2.4-.69,4.8-.7,7.2.02-2.4,0-4.8-.01-7.2-.02Z"/>
    <path class="cls-3" d="M108.53,241.15c.4,0,.73.11.9.51-.39,0-.65-.25-.9-.51Z"/>
    <path class="cls-9" d="M79.63,273.96l-.2.02s-.13-.16-.13-.16c.11.04.22.09.32.14Z"/>
    <path class="cls-11" d="M263.41,69.95c4.64-3.46,10.01-5.1,15.57-6.23,2.95-.6,5.95-.84,8.96-1.08,2.62-.21,5.25-.6,7.84-.29,4.09.5,8.2.58,12.29,1.26,4.86.82,9.66,1.75,14.34,3.34.98.33,1.83,1,2.9,1.06.71.77,1.63,1.25,2.52,1.77,4.99,2.86,9.05,6.74,12.23,11.5,4.37,6.55,5.82,14.01,6.34,21.71.19,2.78,0,5.56-.66,8.3-.78.13-1.37-.36-1.96-.72-6.05-3.67-12.66-5.99-19.39-7.98-5.79-1.72-11.66-3.1-17.63-4.04-4.7-.74-9.37-1.66-14.15-1.73-.72-.01-1.41-.11-2.11-.33-1.66-.51-1.77-.68-1.52-2.26.9-5.88.47-11.59-2.45-16.92-2.55-4.66-6.59-7.03-11.8-7.32-3.01-.17-6.04-.22-8.99.81-.74.26-1.99.64-2.3-.85Z"/>
    <path class="cls-13" d="M263.41,69.95c.31,1.49,1.56,1.11,2.3.85,2.95-1.03,5.98-.98,8.99-.81,5.21.29,9.25,2.66,11.8,7.32,2.92,5.33,3.35,11.03,2.45,16.92-.24,1.59-.14,1.75,1.52,2.26.7.22,1.39.32,2.11.33,4.78.07,9.46.99,14.15,1.73,5.97.94,11.84,2.33,17.63,4.04,6.73,1.99,13.34,4.32,19.39,7.98.59.36,1.18.85,1.96.72.65-2.74.85-5.51.66-8.3-.52-7.7-1.97-15.15-6.34-21.71-3.17-4.76-7.23-8.65-12.23-11.5-.9-.51-1.81-1-2.52-1.77.21-.29.49-.39.83-.28,6.9,2.39,13.42,5.42,18.82,10.55,3.57,3.39,5.35,7.69,6.69,12.22.93,3.12,1.22,6.36,1.58,9.61.73,6.6-.34,12.95-1.72,19.31-.01.06-.11.1-.32.3-3.32-2.22-6.99-3.92-10.62-5.67-7.48-3.61-15.31-6.28-23.26-8.67-6.63-2-13.33-3.66-20.14-4.89-4.29-.77-8.59-1.44-12.95-1.81-4.59-.39-9.2-.61-13.78-1.03-2.36-.22-3.08.65-3.68,2.41,0,0-.21.11-.21.11,0,0-.23-.05-.23-.05-.06-.05-.11-.14-.18-.15-3.19-.85-3.15-.86-3.22-4.4-.02-1.04.49-2.24-.59-3.1,2.17-1.89,5.28-1.83,7.19.25.34.37.55.68,1.09.73,4.06.37,8.03,1.19,11.93,2.38.84.26,1.29-.03,1.6-.9,1.3-3.67,1.98-7.4,1.33-11.28-.59-3.47-2.37-6.23-5.39-8.11-5.76-3.6-17.16-3.7-22.84,4.76-2.91,4.33-3.74,9.21-3.82,14.5,2.48-.87,4.74-1.93,7.27-1.81,1.14.47,1.33,1.36,1.33,2.5,0,3.98-.1,4.13-4.07,4.22-.71.02-1.44-.08-2.13.22-.15.06-.34.19-.45.14-2.69-1.27-4.95.57-7.4,1.02-.08.01-.16.02-.24.04-1.98.44-2.33.18-1.99-1.72.82-4.61,1.8-9.16,3.65-13.52,2.79-6.6,7.26-11.69,13.14-15.64.25-.17.6-.19.9-.27ZM255.7,98.73c2.46.13,3.89-1.28,4.94-3.15.64-1.14.32-1.67-.95-1.62-1.75.07-3.4.58-4.94,1.43-1.06.59-1.01,1.54-.87,2.48.18,1.17,1.18.75,1.82.86ZM268.21,93.9c-.04-1.4-.8-1.93-2.7-1.88-1.47.04-1.67.28-1.61,1.94.06,1.87.83,2.86,2.19,2.85,1.32-.02,2.17-1.18,2.12-2.91Z"/>
    <path class="cls-14" d="M260.67,92.98c-2.52-.12-4.78.94-7.27,1.81.08-5.29.91-10.17,3.82-14.5,5.68-8.46,17.08-8.36,22.84-4.76,3.01,1.89,4.8,4.64,5.39,8.11.66,3.87-.03,7.61-1.33,11.28-.31.87-.76,1.16-1.6.9-3.9-1.19-7.87-2.01-11.93-2.38-.53-.05-.75-.36-1.09-.73-1.92-2.07-5.03-2.14-7.19-.25-.55.17-1.1.35-1.65.52Z"/>
    <path class="cls-9" d="M260.17,100.61c-1.37.76-2.91.52-4.37.72-2.16.3-4.31.85-6.52.71,3.55-1.06,7.19-1.5,10.89-1.44Z"/>
    <path class="cls-9" d="M292.27,102.02c-.2-.12-.4-.23-.61-.35.3-.05.54,0,.61.35Z"/>
    <path class="cls-8" d="M190.93,329.41c.14-.55.16-.79.25-1.01,1.57-3.69.93-3.04,4.64-2.57,7.99,1.03,15.74.05,23.25-2.86,5.26-2.04,10.05-4.84,14.14-8.76.58-.56,1.08-1.03,2.07-.7,2.58.87,5.15,1.7,7.36,3.34,2.87,2.13,2.94,4.43.13,6.61-2.24,1.74-4.89,2.68-7.57,3.46-5.84,1.69-11.83,2.53-17.88,3.03-5.26.43-10.52.57-15.78.37-3.49-.13-6.99-.24-10.61-.91Z"/>
    <path class="cls-8" d="M195.14,321.56c1.55-3.01,3.58-5.67,5.9-8.06,4.11-4.24,2.6-3.38,8.01-3.37,6.08.01,12.11.53,18.1,1.55.99.17,1.96.39,3.04.61-7.62,8-26.41,12.75-35.04,9.27Z"/>
    <path class="cls-8" d="M198.91,310.48c-2.94,2.87-5.6,5.81-7.89,9.05-.49.69-1.15.66-1.64.2-1.99-1.85-4.22-2.1-6.71-1.28-.65.21-1.41-.22-2.07.18-.24.74.36,1.01.76,1.33,1.75,1.41,3.66,2.57,5.74,3.42,1,.41,1.39.84.72,1.94-2.4,3.95-.93,3.67-5.73,2.76-3.3-.63-6.51-1.56-9.56-3-1.23-.58-2.41-1.24-3.39-2.21-1.79-1.77-1.78-3.67.06-5.4,1.18-1.1,2.6-1.83,4.08-2.47,3.09-1.33,6.33-2.16,9.61-2.85,4.46-.94,8.99-1.36,13.51-1.8.76-.07,1.54-.22,2.52.13Z"/>
    <path class="cls-8" d="M207.26,308.18c9.34-7.06,19.86-10.39,31.68-10.44-.73,5.1-3.03,9.09-6.34,12.58-.52.55-1.13.53-1.77.4-7.76-1.57-15.63-2.06-23.57-2.55ZM230.41,302.06c-2.69-.54-3.72-.12-4.6,1.81,1.74.09,3.36,0,4.6-1.81Z"/>
    <path class="cls-9" d="M217.35,224.55c0-7.75,0-15.49,0-23.24,0-2.5.02-2.48,2.43-2.79,5.17-.65,10.33-.92,15.51-.04,1.74.3,3.42.8,5.03,1.5,3.34,1.45,5.85,3.71,7.45,7.08,3.33,6.99,3.73,14.22,2.49,21.74-1.72,10.4-8.49,16.02-17.85,19.25-4.18,1.44-8.55,1.95-12.95,2.14-1.99.08-2.04.03-2.04-1.93-.02-7.9,0-15.81,0-23.71-.02,0-.05,0-.07,0ZM219.55,201.29c-.26.53-.2,1.09-.2,1.65,0,12.71-.01,25.41.01,38.12,0,1.75-.05,3.51.24,5.26.27,1.6.22,1.57,1.91,1.6,1.45.03,2.86-.29,4.28-.51,5.87-.89,11.31-2.85,15.81-6.87,2.4-2.15,4.53-4.58,5.46-7.74,1.51-5.17,2.31-10.45,1.48-15.84-.63-4.04-1.65-7.97-4.18-11.32-1.93-2.68-4.76-3.91-7.8-4.72-5.26-1.4-10.59-1.03-15.91-.41-.51.06-.91.26-1.1.77Z"/>
    <path class="cls-7" d="M62.95,239.23c1.97,1.73,3.95,3.45,4.96,5.97.36.88.71,1.75.79,2.73.31,3.83-1.89,6.44-5.72,6.73-3.06.23-5.79-.7-8.32-2.34-.59-.39-1.06-.97-1.79-1.15-1.72-1.89-3.36-3.81-4.02-6.39-1.1-4.29,1.33-7.64,5.75-7.96,2.83-.21,5.27.85,7.72,2,.13.24.32.38.6.39l.03.02Z"/>
    <path class="cls-7" d="M70.52,230.16c1.8,1.9,3.6,3.78,4.14,6.5.37,1.88.43,3.67-1.18,5.01-1.25,1.04-3.38.73-5.34-.49-1.37-.85-2.09-2.33-3.34-3.28-.62-1.19-.91-2.48-1.16-3.77-.33-1.71-.15-3.37,1.35-4.5,1.44-1.09,2.98-.69,4.47.02.35.17.71.34,1.06.51Z"/>
    <path class="cls-7" d="M75.39,233.37c.05-.12.04-.23-.03-.33-.32-1.37-.53-2.76-.36-4.17.38-3.06,2.68-4.19,5.33-2.64,2.67,1.56,4.57,5.55,4.12,8.61-.4,2.66-2.5,3.75-4.92,2.54-1.45-.73-2.37-2.1-3.65-3.05.04-.13.02-.24-.06-.34.02-.32-.19-.48-.43-.62Z"/>
    <path class="cls-7" d="M89.76,234.51c-1.36-1.46-2.34-3.12-2.66-5.13-.13-.79-.19-1.56-.07-2.35.54-3.42,2.44-4.32,5.45-2.57,1.21,1.87,2.21,3.79,2.08,6.13-.17,3.29-1.63,4.51-4.8,3.91Z"/>
    <path class="cls-7" d="M100.82,234.43c-2.06-1.69-2.62-3.86-1.96-6.37.63-2.39,1.93-2.89,4.19-1.69.82,1.49,1.34,3.05,1.11,4.79-.28,2.1-1.17,2.99-3.35,3.27Z"/>
    <path class="cls-3" d="M89.76,234.51c3.17.59,4.63-.62,4.8-3.91.12-2.34-.88-4.26-2.08-6.13.31.04.66,0,.92.14,2.86,1.57,4.25,7.79,1.5,10.72-1.67,1.77-3.94,1.44-5.14-.82Z"/>
    <path class="cls-3" d="M100.82,234.43c2.17-.28,3.07-1.17,3.35-3.27.23-1.74-.29-3.29-1.11-4.79.41-.03.78.04,1.13.27,2.17,1.44,2.86,6.15.18,8.76-.65.64-1.48.52-2.27.46-.86-.06-1.26-.59-1.27-1.44Z"/>
    <path class="cls-3" d="M62.92,239.21c-.28,0-.47-.15-.6-.39.28,0,.48.14.6.39Z"/>
    <path class="cls-9" d="M334.42,127.83c-.09,7.33-5.82,14.35-12.96,15.86-6.34,1.34-12.4-3.47-12.9-10.26-.53-7.25,4.94-15.97,14.47-16.06,1.43-.01,2.88-.1,4.29.27,4.31,1.14,7.16,5.23,7.1,10.19ZM323.87,119.38c-8.3.04-14.29,6.99-12.99,15.1.78,4.91,5.6,8.15,10.43,7.02,5.78-1.36,10.03-6.28,10.87-12.59.74-5.55-2.75-9.56-8.31-9.53Z"/>
    <path class="cls-14" d="M75.39,233.37c.24.14.45.3.43.62-.14-.21-.29-.41-.43-.62Z"/>
    <path class="cls-11" d="M255.7,98.73c-.64-.11-1.64.31-1.82-.86-.14-.94-.19-1.89.87-2.48,1.55-.86,3.19-1.37,4.94-1.43,1.27-.05,1.59.48.95,1.62-1.05,1.87-2.48,3.28-4.94,3.15Z"/>
    <path class="cls-11" d="M268.21,93.9c.05,1.73-.8,2.89-2.12,2.91-1.36.02-2.13-.98-2.19-2.85-.06-1.66.14-1.9,1.61-1.94,1.9-.05,2.66.48,2.7,1.88Z"/>
    <path class="cls-3" d="M230.41,302.06c-1.24,1.82-2.85,1.9-4.6,1.81.88-1.93,1.91-2.35,4.6-1.81Z"/>
    <path class="cls-8" d="M244.36,205.65c2.53,3.35,3.55,7.28,4.18,11.32.83,5.39.04,10.67-1.48,15.84-.92,3.15-3.06,5.59-5.46,7.74-4.5,4.02-9.94,5.98-15.81,6.87-1.42.22-2.82.53-4.28.51-1.69-.03-1.64,0-1.91-1.6-.29-1.75-.24-3.51-.24-5.26-.02-12.71-.01-25.41-.01-38.12,0-.56-.06-1.12.2-1.65.84.36,1.37,1.09,1.99,1.7,4.02,4,8.02,8.03,12.05,12.03.55.55.98,1.27,1.97,1.54,2.49-3.96,5.43-7.61,8.8-10.91Z"/>
    <path class="cls-10" d="M244.36,205.65c-3.37,3.3-6.31,6.96-8.8,10.91-.99-.27-1.42-.99-1.97-1.54-4.03-4-8.03-8.02-12.05-12.03-.62-.62-1.15-1.34-1.99-1.7.18-.52.59-.72,1.1-.77,5.32-.62,10.65-.99,15.91.41,3.05.81,5.87,2.04,7.8,4.72Z"/>
    <path class="cls-10" d="M323.87,119.38c5.56-.02,9.05,3.98,8.31,9.53-.84,6.31-5.09,11.23-10.87,12.59-4.83,1.14-9.65-2.11-10.43-7.02-1.29-8.11,4.69-15.07,12.99-15.1Z"/>
  </g>
</svg>